<svg width="56" height="45" viewBox="0 0 56 45" xmlns="http://www.w3.org/2000/svg">
<path fill-rule="evenodd" clip-rule="evenodd" d="M55.7594 21.2645C54.3204 17.5882 51.2772 12.4554 46.727 8.09598C42.1477 3.70045 35.8571 0 28.0012 0C20.1453 0 13.8548 3.70045 9.27736 8.09598C4.72717 12.4554 1.68593 17.5882 0.239294 21.2645C-0.0797545 22.058 -0.0797545 22.942 0.239294 23.7355C1.68593 27.3214 4.72717 32.4542 9.27736 36.904C13.8548 41.3036 20.1453 45 28.0012 45C35.8571 45 42.1477 41.3036 46.727 36.904C51.2772 32.4542 54.3204 27.3214 55.7594 23.7355C56.0802 22.942 56.0802 22.058 55.7594 21.2645Z" />
</svg>
