<svg width="56" height="45" viewBox="0 0 56 45" xmlns="http://www.w3.org/2000/svg">
<path d="M27.1845 12.8973C27.4568 12.8672 27.729 12.8571 28.0012 12.8571C33.1542 12.8571 37.335 17.0859 37.335 22.5C37.335 27.8237 33.1542 32.1429 28.0012 32.1429C22.7607 32.1429 18.6675 27.8237 18.6675 22.5C18.6675 22.2187 18.6772 21.9375 18.7064 21.6562C19.6106 22.1083 20.6606 22.5 21.7787 22.5C25.2108 22.5 28.0012 19.6172 28.0012 16.0714C28.0012 14.9163 27.622 13.8315 27.1845 12.8973ZM46.727 8.09598C51.2772 12.4554 54.3204 17.5882 55.7594 21.2645C56.0802 22.058 56.0802 22.942 55.7594 23.7355C54.3204 27.3214 51.2772 32.4542 46.727 36.904C42.1477 41.3036 35.8571 45 28.0012 45C20.1453 45 13.8548 41.3036 9.27736 36.904C4.72716 32.4542 1.68592 27.3214 0.239286 23.7355C-0.0797621 22.942 -0.0797621 22.058 0.239286 21.2645C1.68592 17.5882 4.72716 12.4554 9.27736 8.09598C13.8548 3.70045 20.1453 0 28.0012 0C35.8571 0 42.1477 3.70045 46.727 8.09598ZM28.0012 8.03571C20.2717 8.03571 14.0006 14.5145 14.0006 22.5C14.0006 30.4855 20.2717 36.9643 28.0012 36.9643C35.7307 36.9643 42.0018 30.4855 42.0018 22.5C42.0018 14.5145 35.7307 8.03571 28.0012 8.03571Z" />
</svg>
